<?xml version="1.0" standalone="no"?>
<!DOCTYPE svg PUBLIC "-//W3C//DTD SVG 20010904//EN"
 "http://www.w3.org/TR/2001/REC-SVG-20010904/DTD/svg10.dtd">
<svg version="1.0" xmlns="http://www.w3.org/2000/svg"
 width="512.000000pt" height="512.000000pt" viewBox="0 0 512.000000 512.000000"
 preserveAspectRatio="xMidYMid meet">
<metadata>
Created by potrace 1.11, written by Peter Selinger 2001-2013
</metadata>
<g transform="translate(0.000000,512.000000) scale(0.100000,-0.100000)"
fill="#000000" stroke="none">
<path d="M1510 4100 c-21 -21 -24 -30 -20 -70 2 -26 34 -60 57 -60 7 0 49 -14
93 -31 227 -87 388 -262 455 -493 l17 -57 35 31 c19 17 50 38 68 47 l32 15
-12 42 c-80 256 -294 473 -563 570 -88 31 -135 33 -162 6z"/>
<path d="M3470 4096 c-61 -21 -179 -75 -190 -86 -3 -3 -30 -21 -60 -41 -30
-20 -84 -65 -119 -100 -61 -62 -161 -197 -161 -219 0 -5 -4 -10 -8 -10 -5 0
-9 -6 -9 -12 -1 -7 -12 -43 -27 -80 l-26 -68 28 -14 c16 -8 46 -30 67 -49 l40
-35 26 82 c15 45 41 104 58 131 17 28 35 59 40 70 13 27 96 114 153 159 63 50
180 109 259 130 51 14 69 24 81 45 8 14 13 32 12 39 -1 6 -2 18 -3 25 -7 52
-70 65 -161 33z"/>
<path d="M2425 3545 c-59 -15 -126 -44 -105 -45 52 -2 45 -47 -16 -104 -70
-66 -204 -111 -217 -73 -6 18 -90 -117 -120 -193 -26 -65 -45 -155 -51 -240
l-3 -45 644 0 643 0 0 43 c0 23 -7 77 -15 118 -9 41 -13 80 -9 86 4 6 3 8 -4
4 -6 -3 -14 4 -17 16 -28 90 -120 232 -135 208 -32 -52 -231 55 -263 141 -7
21 10 39 38 39 19 1 19 1 1 12 -70 40 -274 59 -371 33z"/>
<path d="M1075 3317 c-37 -37 -44 -71 -25 -122 5 -14 12 -36 14 -48 2 -12 11
-41 20 -65 8 -23 16 -44 16 -47 1 -7 3 -14 48 -160 22 -71 50 -162 62 -202 13
-40 25 -72 29 -71 3 1 13 -1 21 -5 8 -3 78 -22 155 -43 77 -20 146 -42 153
-47 6 -5 12 -7 12 -4 0 3 23 -1 52 -9 29 -7 53 -12 55 -11 1 2 5 25 8 53 3 27
7 60 10 74 17 82 32 70 -147 121 l-162 45 -34 110 c-33 108 -44 146 -97 317
-33 108 -55 136 -112 144 -39 5 -46 2 -78 -30z"/>
<path d="M3912 3315 c-25 -21 -39 -59 -108 -280 -79 -255 -79 -257 -113 -271
-18 -8 -43 -16 -55 -18 -44 -8 -221 -59 -229 -66 -4 -3 -3 -31 2 -61 6 -29 12
-74 15 -99 3 -25 5 -46 5 -46 1 -1 31 7 69 18 37 10 74 21 82 23 24 6 284 76
295 80 11 3 23 37 104 300 27 88 60 195 74 237 32 101 29 143 -12 180 -40 36
-88 37 -129 3z"/>
<path d="M4184 2720 l1 -195 40 -19 c52 -25 488 -214 542 -235 23 -9 45 -20
49 -24 4 -4 -24 -21 -62 -38 -38 -17 -111 -51 -162 -75 -51 -24 -95 -44 -97
-44 -2 0 -50 -22 -107 -48 -57 -27 -126 -59 -153 -71 l-50 -22 -1 -185 c-1
-127 3 -184 10 -183 6 0 202 96 436 213 l425 213 0 234 0 234 -225 113 c-124
62 -234 119 -245 126 -11 7 -30 16 -41 20 -12 4 -58 26 -103 50 -44 24 -81 43
-81 41 0 -2 -40 18 -88 44 l-88 47 0 -196z"/>
<path d="M685 2788 c-132 -66 -325 -164 -430 -218 l-190 -97 -3 -231 -2 -232
430 -215 c236 -118 433 -215 438 -215 4 0 7 83 8 184 l0 184 -50 23 c-28 12
-97 44 -154 71 -57 26 -105 48 -107 48 -2 0 -43 19 -92 41 -48 23 -121 57
-160 75 -40 18 -73 35 -73 37 0 3 39 21 88 42 82 35 139 60 207 90 17 7 95 41
175 75 80 35 150 67 155 72 11 9 16 376 6 383 -3 1 -114 -51 -246 -117z"/>
<path d="M1801 2632 c-21 -93 -26 -150 -26 -317 0 -191 4 -231 35 -364 78
-331 274 -600 513 -705 59 -27 195 -57 202 -46 3 4 5 338 5 741 l1 734 -360 2
-359 1 -11 -46z"/>
<path d="M2589 2670 c-1 -3 -2 -335 -4 -739 l-3 -733 57 5 c70 7 171 46 249
96 211 137 382 429 437 746 30 172 26 421 -8 575 l-12 54 -358 1 c-196 0 -357
-2 -358 -5z"/>
<path d="M1650 2151 c-19 -9 -100 -45 -180 -80 -145 -63 -218 -98 -232 -110
-7 -6 -30 -132 -104 -546 -2 -16 -16 -92 -30 -169 -20 -113 -23 -145 -13 -173
19 -57 77 -83 134 -58 44 18 60 46 74 130 6 39 13 81 16 95 3 14 14 75 24 135
27 149 51 285 56 315 3 14 8 43 11 65 8 46 21 75 34 75 5 0 40 14 77 31 38 17
101 47 141 65 62 28 73 37 67 53 -9 30 -15 61 -22 116 -8 72 -12 76 -53 56z"/>
<path d="M3415 2113 c-4 -27 -11 -72 -16 -100 -10 -52 -7 -73 11 -73 5 0 42
-15 82 -34 40 -19 102 -47 138 -64 l65 -29 19 -109 c10 -60 20 -118 22 -129 3
-11 7 -36 10 -55 3 -19 16 -96 29 -170 24 -133 29 -161 40 -230 9 -57 24 -85
54 -103 59 -34 131 -11 151 47 11 33 9 54 -14 172 -5 26 -64 368 -72 419 -3
22 -7 45 -9 50 -4 18 -15 79 -20 110 -2 17 -7 41 -10 55 -14 70 -17 86 -17 97
-1 7 -5 10 -10 7 -9 -6 -94 31 -346 147 -46 22 -88 39 -92 39 -5 0 -12 -21
-15 -47z"/>
</g>
</svg>
